<?xml version="1.0" encoding="utf-8"?>
<!-- Generator: Adobe Illustrator 15.0.0, SVG Export Plug-In  -->
<!DOCTYPE svg PUBLIC "-//W3C//DTD SVG 1.1//EN" "http://www.w3.org/Graphics/SVG/1.1/DTD/svg11.dtd" [
	<!ENTITY ns_flows "http://ns.adobe.com/Flows/1.0/">
]>
<svg version="1.1"
	 xmlns="http://www.w3.org/2000/svg" xmlns:xlink="http://www.w3.org/1999/xlink" xmlns:a="http://ns.adobe.com/AdobeSVGViewerExtensions/3.0/"
	 x="0px" y="0px" width="57px" height="57px" viewBox="-0.745 -0.833 57 57" enable-background="new -0.745 -0.833 57 57"
	 xml:space="preserve">
<defs>
</defs>
<path d="M42.516,55.262h-29.77C5.718,55.262,0,49.544,0,42.516V12.746C0,5.718,5.718,0,12.746,0h29.77
	c7.028,0,12.747,5.718,12.747,12.746v29.771C55.263,49.544,49.544,55.262,42.516,55.262z M12.746,1.5
	C6.545,1.5,1.5,6.545,1.5,12.746v29.771c0,6.201,5.045,11.246,11.246,11.246h29.77c6.202,0,11.247-5.045,11.247-11.246V12.746
	c0-6.201-5.045-11.246-11.247-11.246H12.746z"/>
<path fill="#662D91" d="M43.813,11.811H15.134v11.487h19.013c1.389,0,2.424,0.312,3.108,0.934c0.685,0.624,1.025,1.455,1.025,2.496
	c0,1.041-0.347,1.87-1.042,2.482c-0.692,0.611-1.725,0.919-3.092,0.919H15.134v14.794c0,1.878-0.424,3.271-1.271,4.181
	c-0.848,0.908-1.936,1.362-3.262,1.362c-1.348,0-2.445-0.46-3.292-1.378c-0.848-0.919-1.271-2.308-1.271-4.165V10.371
	c0-1.307,0.193-2.373,0.582-3.2c0.387-0.828,0.995-1.429,1.822-1.808c0.827-0.378,1.884-0.567,3.17-0.567h32.201
	c1.448,0,2.525,0.322,3.23,0.966c0.705,0.643,1.056,1.485,1.056,2.526c0,1.063-0.351,1.915-1.056,2.559
	C46.338,11.489,45.261,11.811,43.813,11.811z"/>
<path fill="#662D91" d="M26.299,47.417c-0.729,0.566-1.436,0.992-2.115,1.276c-0.682,0.283-1.447,0.427-2.294,0.427
	c-0.774,0-1.453-0.153-2.039-0.459c-0.586-0.308-1.039-0.722-1.355-1.244c-0.317-0.524-0.474-1.09-0.474-1.702
	c0-0.825,0.259-1.53,0.785-2.112c0.522-0.583,1.239-0.972,2.154-1.171c0.19-0.043,0.668-0.144,1.427-0.298
	c0.757-0.155,1.41-0.297,1.951-0.428c0.542-0.126,1.127-0.285,1.762-0.468c-0.035-0.796-0.195-1.382-0.481-1.753
	c-0.282-0.371-0.871-0.557-1.761-0.557c-0.769,0-1.344,0.105-1.731,0.318c-0.386,0.216-0.72,0.534-0.995,0.962
	s-0.471,0.71-0.586,0.847c-0.114,0.136-0.359,0.204-0.734,0.204c-0.339,0-0.632-0.108-0.879-0.326
	c-0.249-0.219-0.371-0.494-0.371-0.835c0-0.53,0.188-1.045,0.564-1.547c0.375-0.501,0.961-0.915,1.757-1.238
	c0.796-0.322,1.786-0.487,2.974-0.487c1.327,0,2.367,0.158,3.126,0.472c0.759,0.313,1.293,0.81,1.61,1.486
	c0.313,0.679,0.469,1.576,0.469,2.696c0,0.706-0.002,1.309-0.006,1.803c-0.002,0.494-0.009,1.042-0.016,1.646
	c0,0.567,0.094,1.159,0.28,1.774c0.188,0.615,0.281,1.011,0.281,1.187c0,0.313-0.142,0.592-0.433,0.846
	c-0.293,0.256-0.624,0.384-0.991,0.384c-0.312,0-0.615-0.146-0.92-0.437C26.959,48.391,26.639,47.969,26.299,47.417z M26.101,43.052
	c-0.442,0.161-1.086,0.332-1.929,0.514c-0.844,0.179-1.429,0.313-1.752,0.397c-0.324,0.084-0.634,0.251-0.929,0.498
	c-0.295,0.246-0.442,0.591-0.442,1.033c0,0.456,0.173,0.844,0.519,1.165c0.348,0.32,0.801,0.48,1.362,0.48
	c0.596,0,1.146-0.131,1.653-0.393c0.502-0.26,0.874-0.6,1.109-1.011c0.274-0.457,0.409-1.209,0.409-2.255V43.052z"/>
<path fill="#662D91" d="M42.162,43.206v4.014c0,0.632-0.143,1.108-0.431,1.425c-0.288,0.317-0.667,0.477-1.14,0.477
	c-0.456,0-0.826-0.159-1.11-0.477c-0.283-0.316-0.425-0.793-0.425-1.425v-4.81c0-0.758-0.026-1.35-0.078-1.77
	c-0.05-0.419-0.191-0.764-0.419-1.032c-0.23-0.269-0.592-0.404-1.084-0.404c-0.986,0-1.637,0.34-1.951,1.018
	c-0.313,0.678-0.469,1.651-0.469,2.918v4.08c0,0.626-0.143,1.1-0.426,1.419c-0.284,0.319-0.658,0.482-1.122,0.482
	c-0.458,0-0.831-0.163-1.122-0.482c-0.293-0.319-0.436-0.793-0.436-1.419v-8.634c0-0.568,0.129-1,0.392-1.293
	c0.261-0.295,0.604-0.443,1.033-0.443c0.414,0,0.759,0.139,1.033,0.415c0.278,0.276,0.414,0.659,0.414,1.144v0.289
	c0.524-0.626,1.083-1.089,1.682-1.383c0.597-0.294,1.261-0.442,1.989-0.442c0.759,0,1.411,0.151,1.957,0.454
	c0.545,0.303,0.993,0.76,1.348,1.371c0.508-0.619,1.054-1.078,1.636-1.378c0.582-0.298,1.227-0.447,1.934-0.447
	c0.825,0,1.538,0.163,2.135,0.488c0.595,0.322,1.042,0.787,1.337,1.391c0.257,0.547,0.387,1.405,0.387,2.575v5.894
	c0,0.632-0.144,1.108-0.431,1.425c-0.287,0.317-0.666,0.477-1.139,0.477c-0.458,0-0.831-0.163-1.122-0.482s-0.438-0.793-0.438-1.419
	v-5.074c0-0.649-0.027-1.168-0.081-1.558c-0.057-0.392-0.205-0.721-0.45-0.984c-0.242-0.267-0.61-0.399-1.104-0.399
	c-0.399,0-0.775,0.118-1.133,0.354c-0.358,0.235-0.636,0.552-0.836,0.95C42.272,41.017,42.162,41.916,42.162,43.206z"/>
</svg>
